<svg xmlns="http://www.w3.org/2000/svg" data-name="Layer 1" viewBox="0 0 512 512"><path fill="#a2e62e" d="M133.7,174.35l-9,5.2L84.25,202.84,60,169.57,15.27,108.1A40.59,40.59,0,1,1,85.1,67.5l1,2.27,27.7,60.89,10.85,23.86,6.48,14.25Z"/><path fill="#a2e62e" d="M241.86,84.32a40.25,40.25,0,0,1-7.76,23.78L189,170l-23.92,32.85-40.43-23.29-9-5.2,2.54-5.58,6.48-14.25,10.81-23.78L163.4,69.4l.86-1.9a40.63,40.63,0,0,1,77.6,16.82Z"/><path fill="#97d729" d="M164.26,67.5l-48.6,106.85,38.17,22h9.75L177.8,51.14A40.34,40.34,0,0,0,164.26,67.5Z"/><path fill="#97d729" d="M85.1,67.5A40.41,40.41,0,0,0,71.66,51.21L87,196.35h8.57l38.17-22Z"/><path fill="#a2e62e" d="M96.57,168.77h57.1L165.1,52A40.57,40.57,0,0,0,124.68,7.5h0A40.57,40.57,0,0,0,84.29,52.29Z"/><path fill="#fea95c" d="M124.16,504.5h0a41.27,41.27,0,0,0,38.27-25.66A518.14,518.14,0,0,0,198.06,335a517.83,517.83,0,0,0-2.34-122.16,71.91,71.91,0,0,0-71.33-61.9h0A72.06,72.06,0,0,0,52.87,214.2a545.54,545.54,0,0,0,32.74,264A41.31,41.31,0,0,0,124.16,504.5Z"/><path fill="#fe9738" d="M195.72,212.79a71.84,71.84,0,0,0-55-60,71.42,71.42,0,0,1,25,45A517.83,517.83,0,0,1,168.06,320a518.14,518.14,0,0,1-35.63,143.89A41.27,41.27,0,0,1,94.16,489.5h0c-.65,0-1.3,0-2-.05a41.41,41.41,0,0,0,32,15.05h0a41.27,41.27,0,0,0,38.27-25.66A518.14,518.14,0,0,0,198.06,335,517.83,517.83,0,0,0,195.72,212.79Z"/><path fill="#a2e62e" d="M396.28,174.35l-9,5.2-40.43,23.29L322.6,169.57,277.85,108.1a40.59,40.59,0,1,1,69.83-40.6l1,2.27,27.7,60.89,10.85,23.86,6.48,14.25Z"/><path fill="#a2e62e" d="M504.44,84.32a40.25,40.25,0,0,1-7.76,23.78L451.61,170l-23.92,32.85-40.43-23.29-9-5.2,2.54-5.58,6.48-14.25,10.81-23.78L426,69.4l.86-1.9a40.63,40.63,0,0,1,77.6,16.82Z"/><path fill="#97d729" d="M426.84,67.5,378.25,174.35l38.16,22h9.75L440.38,51.14A40.34,40.34,0,0,0,426.84,67.5Z"/><path fill="#97d729" d="M347.68,67.5a40.33,40.33,0,0,0-13.44-16.29l15.3,145.14h8.57l38.17-22Z"/><path fill="#a2e62e" d="M359.16,168.77h57.09L427.69,52A40.58,40.58,0,0,0,387.26,7.5h0a40.57,40.57,0,0,0-40.39,44.79Z"/><path fill="#fea95c" d="M386.74,504.5h0A41.27,41.27,0,0,0,425,478.84,518.46,518.46,0,0,0,460.65,335a518.31,518.31,0,0,0-2.35-122.16A71.91,71.91,0,0,0,387,150.89h0a72.06,72.06,0,0,0-71.52,63.31,545.87,545.87,0,0,0,32.74,264A41.32,41.32,0,0,0,386.74,504.5Z"/><path fill="#fe9738" d="M458.3,212.79a71.84,71.84,0,0,0-55-60,71.42,71.42,0,0,1,25,45A518.31,518.31,0,0,1,430.65,320,518.46,518.46,0,0,1,395,463.84a41.27,41.27,0,0,1-38.27,25.66h0c-.65,0-1.3,0-1.94-.05a41.37,41.37,0,0,0,31.94,15.05h0A41.27,41.27,0,0,0,425,478.84,518.46,518.46,0,0,0,460.65,335,518.31,518.31,0,0,0,458.3,212.79Z"/><path d="M225.29,42.65a48.11,48.11,0,0,0-52.57,2.94,48.12,48.12,0,0,0-96.1,0A48.11,48.11,0,0,0,0,84.31a47.61,47.61,0,0,0,9.21,28.2l48.68,66.86a79.13,79.13,0,0,0-10.62,24.16,7.46,7.46,0,0,0-.26,1.06,77.56,77.56,0,0,0-1.58,8.7,554,554,0,0,0-2.28,113.33l0,.39.15,1.87A553.49,553.49,0,0,0,67.12,448.11a7.41,7.41,0,0,0,.25.8q5.14,16.13,11.25,32A49.09,49.09,0,0,0,124.16,512a48.58,48.58,0,0,0,45.22-30.33c.56-1.38,1.09-2.77,1.64-4.15a6,6,0,0,0,.35-.88,525.73,525.73,0,0,0,31.85-121.46.78.78,0,0,1,0-.16q1.32-9.63,2.29-19.33a526.78,526.78,0,0,0,.15-102.24c0-.14,0-.29-.05-.43q-1-10.65-2.48-21.25a78.29,78.29,0,0,0-12-32l49-67.26a47.59,47.59,0,0,0,9.2-28.19A48.22,48.22,0,0,0,225.29,42.65ZM124.68,15a33.19,33.19,0,0,1,24.56,10.88,32.63,32.63,0,0,1,8.4,25.38L156,68.39l0,.29-7.68,78.41a78,78,0,0,0-16.13-3.32v-61a7.5,7.5,0,0,0-15,0v60.91a79.58,79.58,0,0,0-15.34,3l-10-95.16A33.67,33.67,0,0,1,91.56,48,33.09,33.09,0,0,1,124.68,15ZM21.33,103.69A32.79,32.79,0,0,1,15,84.31a33.11,33.11,0,0,1,43.28-31.5,32.7,32.7,0,0,1,20,17.79l.53,1.17,6.54,62L72,110.65a7.5,7.5,0,1,0-13,7.51l22,38.13a80,80,0,0,0-13.41,11Zm170,137.81a510.82,510.82,0,0,1-.73,92.71q-.63,6.29-1.42,12.56H155.67a7.5,7.5,0,1,0,0,15H187.1a510.73,510.73,0,0,1-28,105.1H130.41a7.5,7.5,0,1,0,0,15h22A33.64,33.64,0,0,1,124.16,497,34,34,0,0,1,92.6,475.46q-4.17-10.79-7.85-21.73h23.84a7.5,7.5,0,1,0,0-15H79.89a538.83,538.83,0,0,1-21-105.1H96.57a7.5,7.5,0,0,0,0-15h-39a539.37,539.37,0,0,1,2.73-103.51c.08-.59.17-1.17.26-1.76h36a7.5,7.5,0,0,0,0-15H64.73a64.66,64.66,0,0,1,59.66-40c32.06,0,59.54,23.83,63.9,55.43q.87,6.33,1.58,12.68H156.28a7.5,7.5,0,1,0,0,15ZM228,103.69l-46.55,63.92a80.71,80.71,0,0,0-13.34-11l22.22-38.41a7.5,7.5,0,0,0-13-7.51l-12.63,21.83,6-61.11.35-.77a32.71,32.71,0,0,1,20-17.79,33.12,33.12,0,0,1,43.27,31.51A32.8,32.8,0,0,1,228,103.69ZM512,84.32a48.11,48.11,0,0,0-76.64-38.73,48.12,48.12,0,0,0-96.1,0,48.06,48.06,0,0,0-67.41,66.94l48.68,66.86a79.13,79.13,0,0,0-10.62,24.16,6.31,6.31,0,0,0-.26,1.06,77.56,77.56,0,0,0-1.58,8.7,554,554,0,0,0-2.28,113.33l0,.39.15,1.87a553.49,553.49,0,0,0,23.79,119.23,7.41,7.41,0,0,0,.25.8q5.14,16.13,11.25,32A49.09,49.09,0,0,0,386.8,512,48.58,48.58,0,0,0,432,481.67c.56-1.38,1.09-2.77,1.64-4.15a7.32,7.32,0,0,0,.35-.88,525.21,525.21,0,0,0,31.84-121.46l0-.16q1.32-9.63,2.29-19.33a526.78,526.78,0,0,0,.15-102.24c0-.14,0-.29-.05-.43q-1-10.65-2.48-21.25a78.29,78.29,0,0,0-12-32l49-67.26A47.59,47.59,0,0,0,512,84.32ZM387.32,15a33.19,33.19,0,0,1,24.56,10.88,32.63,32.63,0,0,1,8.4,25.38L418.6,68.39a2.85,2.85,0,0,0,0,.29l-7.68,78.41a78,78,0,0,0-16.13-3.32v-61a7.5,7.5,0,0,0-15,0v60.91a79.58,79.58,0,0,0-15.34,3l-10-95.16A33.67,33.67,0,0,1,354.2,48,33.09,33.09,0,0,1,387.32,15ZM284,103.69a32.79,32.79,0,0,1-6.33-19.38,33.11,33.11,0,0,1,43.28-31.5,32.7,32.7,0,0,1,20,17.79l.53,1.17,6.54,62-13.36-23.09a7.5,7.5,0,1,0-13,7.51l22.05,38.13a80,80,0,0,0-13.41,11ZM454,241.5a510.82,510.82,0,0,1-.73,92.71q-.63,6.29-1.43,12.56h-33.5a7.5,7.5,0,1,0,0,15h31.43a510.73,510.73,0,0,1-28,105.1H393.05a7.5,7.5,0,0,0,0,15h22A33.65,33.65,0,0,1,386.8,497a34,34,0,0,1-31.56-21.54q-4.17-10.79-7.85-21.73h23.84a7.5,7.5,0,0,0,0-15h-28.7a538.83,538.83,0,0,1-21-105.1h37.72a7.5,7.5,0,0,0,0-15h-39A539.37,539.37,0,0,1,323,215.12c.07-.59.17-1.17.26-1.76h36a7.5,7.5,0,0,0,0-15H327.36a64.68,64.68,0,0,1,59.67-40c32.06,0,59.54,23.83,63.9,55.43q.87,6.33,1.58,12.68H418.92a7.5,7.5,0,0,0,0,15Zm36.71-137.81-46.55,63.92a80.71,80.71,0,0,0-13.34-11L453,118.16a7.5,7.5,0,1,0-13-7.51l-12.63,21.83,6-61.11.35-.77a32.71,32.71,0,0,1,20-17.79A33.12,33.12,0,0,1,497,84.32,32.8,32.8,0,0,1,490.68,103.69Z"/></svg>